<?xml version="1.0" encoding="UTF-8" standalone="no"?>
<!-- Created with Inkscape (http://www.inkscape.org/) -->

<svg
   xmlns:dc="http://purl.org/dc/elements/1.1/"
   xmlns:cc="http://creativecommons.org/ns#"
   xmlns:rdf="http://www.w3.org/1999/02/22-rdf-syntax-ns#"
   xmlns:svg="http://www.w3.org/2000/svg"
   xmlns="http://www.w3.org/2000/svg"
   xmlns:sodipodi="http://sodipodi.sourceforge.net/DTD/sodipodi-0.dtd"
   xmlns:inkscape="http://www.inkscape.org/namespaces/inkscape"
   id="svg3039"
   version="1.1"
   inkscape:version="0.48.3.1 r9886"
   width="560.69598"
   height="531.83948"
   xml:space="preserve"
   sodipodi:docname="accelerators.svg"><metadata
     id="metadata3045"><rdf:RDF><cc:Work
         rdf:about=""><dc:format>image/svg+xml</dc:format><dc:type
           rdf:resource="http://purl.org/dc/dcmitype/StillImage" /></cc:Work></rdf:RDF></metadata><defs
     id="defs3043" /><sodipodi:namedview
     pagecolor="#ffffff"
     bordercolor="#666666"
     borderopacity="1"
     objecttolerance="10"
     gridtolerance="10"
     guidetolerance="10"
     inkscape:pageopacity="0"
     inkscape:pageshadow="2"
     inkscape:window-width="1680"
     inkscape:window-height="1026"
     id="namedview3041"
     showgrid="false"
     inkscape:zoom="0.88787879"
     inkscape:cx="41.710618"
     inkscape:cy="394.79528"
     inkscape:window-x="0"
     inkscape:window-y="24"
     inkscape:window-maximized="1"
     inkscape:current-layer="g3047"
     fit-margin-top="0"
     fit-margin-left="0"
     fit-margin-right="0"
     fit-margin-bottom="0" /><g
     id="g3047"
     inkscape:groupmode="layer"
     inkscape:label="accelerators"
     transform="matrix(1.25,0,0,-1.25,-100.00271,921.60395)"><path
       d="m 492.11898,555.99091 0,28.71197 -91.99222,0 0,-28.71197 91.99222,0 z"
       style="fill:none;stroke:#000000;stroke-width:0.06963627;stroke-linecap:butt;stroke-linejoin:miter;stroke-miterlimit:4;stroke-opacity:1;stroke-dasharray:none"
       id="path3139"
       inkscape:connector-curvature="0" /><text
       transform="scale(1,-1)"
       id="text3141"
       x="399.88651"
       y="-524.5213"><tspan
         style="font-size:9.50399971px;font-variant:normal;font-weight:normal;writing-mode:lr-tb;fill:#000000;fill-opacity:1;fill-rule:nonzero;stroke:none;font-family:Times New Roman;-inkscape-font-specification:Times"
         x="399.88651 405.69345 412.55533 418.8945 421.53662 423.91263 429.71954 433.93933 436.93213 441.68414 445.90393 448.27991 455.14182 459.36157 464.11359 467.27841 472.03043 476.78241 479.15842 485.49759 490.24957 492.89169 495.53381 498.17593 502.92792 507.14771"
         y="-524.5213"
         sodipodi:role="line"
         id="tspan3143">LHC: Large Hadron Collider</tspan></text>
<text
       transform="scale(1,-1)"
       id="text3145"
       x="399.48276"
       y="-513.0174"><tspan
         style="font-size:9.50399971px;font-variant:normal;font-weight:normal;writing-mode:lr-tb;fill:#000000;fill-opacity:1;fill-rule:nonzero;stroke:none;font-family:Times New Roman;-inkscape-font-specification:Times"
         x="399.48276 404.76697 410.05121 415.33542 417.97754 420.35355 425.63779 430.38977 435.14178 439.36154 442.5264 444.90237 450.18661 453.35144 458.10342 460.74554 465.49756 470.24954 472.62555 477.90979 482.66177 487.41379 491.63354 496.38556 499.55038 504.3024 506.94449 510.10931 514.86133"
         y="-513.0174"
         sodipodi:role="line"
         id="tspan3147">SPS: Super Proton Synchrotron</tspan></text>
<text
       transform="scale(1,-1)"
       id="text3157"
       x="399.91898"
       y="-500.90579"><tspan
         style="font-size:9.50399971px;font-variant:normal;font-weight:normal;writing-mode:lr-tb;fill:#000000;fill-opacity:1;fill-rule:nonzero;stroke:none;font-family:Times New Roman;-inkscape-font-specification:Times"
         x="399.91898 405.20319 410.48743 416.82657 419.46872 421.84473 427.12894 430.29376 435.04578 437.68787 442.43988 447.19189 449.56787 454.85211 459.6041 464.35611 468.5759 473.32788 476.49271 481.24472 483.88684 487.05167 491.80365 496.55566 498.93167 505.27081 510.02283 514.77484 518.47186 521.11395 525.33374"
         y="-500.90579"
         sodipodi:role="line"
         id="tspan3159">PSB: Proton Synchrotron Booster</tspan></text>
<text
       transform="scale(1,-1)"
       id="text3161"
       x="399.91898"
       y="-489.40189"><tspan
         style="font-size:9.50399971px;font-variant:normal;font-weight:normal;writing-mode:lr-tb;fill:#000000;fill-opacity:1;fill-rule:nonzero;stroke:none;font-family:Times New Roman;-inkscape-font-specification:Times"
         x="399.91898 405.20319 410.48743 413.12955 415.50555 420.78976 423.95459 428.7066 431.34872 436.10071 440.85272 443.2287 448.51294 453.26492 458.01694 462.23672 466.98871 470.15353 474.90555 477.54767 480.71249 485.46451"
         y="-489.40189"
         sodipodi:role="line"
         id="tspan3163">PS: Proton Synchrotron</tspan></text>
<text
       transform="scale(1,-1)"
       id="text3165"
       x="399.88651"
       y="-477.89691"><tspan
         style="font-size:9.50399971px;font-variant:normal;font-weight:normal;writing-mode:lr-tb;fill:#000000;fill-opacity:1;fill-rule:nonzero;stroke:none;font-family:Times New Roman;-inkscape-font-specification:Times"
         x="399.88651 405.69342 408.85828 415.72015 422.58206 428.9212 431.56332 433.93933 439.74628 442.9111 449.77301 453.99277 458.21255 461.37738 463.2316 470.09351 476.43268 480.65244 484.87222 487.51434 491.7341 494.89893 499.11871 501.76083 506.51282"
         y="-477.89691"
         sodipodi:role="line"
         id="tspan3167">LINAC: LINear ACcelerator</tspan></text>
<text
       transform="scale(1,-1)"
       id="text3169"
       x="399.88651"
       y="-466.39301"><tspan
         style="font-size:9.50399971px;font-variant:normal;font-weight:normal;writing-mode:lr-tb;fill:#000000;fill-opacity:1;fill-rule:nonzero;stroke:none;font-family:Times New Roman;-inkscape-font-specification:Times"
         x="399.88651 405.69342 411.5004 414.66522 421.00439 423.64648 426.02249 431.82944 436.58145 443.44333 445.81934 451.62628 456.37827 460.59805 463.58801 468.34003 473.09201 475.46802 478.63284 483.38486 488.13684 490.51285 496.85202 499.49411 504.24612"
         y="-466.39301"
         sodipodi:role="line"
         id="tspan3171">LEIR: Low Energy Ion Ring</tspan></text>
<g
       id="g3683"
       transform="translate(3.0254798,-1.1046856)"><path
         inkscape:connector-curvature="0"
         id="path3133"
         style="fill:none;stroke:#f14d3e;stroke-width:3;stroke-linecap:butt;stroke-linejoin:miter;stroke-miterlimit:4;stroke-opacity:1;stroke-dasharray:none"
         d="m 415.56386,575.62578 29.7001,0" /><path
         inkscape:connector-curvature="0"
         id="path3137"
         style="fill:none;stroke:#0aa74c;stroke-width:2;stroke-linecap:butt;stroke-linejoin:miter;stroke-miterlimit:4;stroke-opacity:1;stroke-dasharray:none"
         d="m 415.56386,566.63518 29.7001,0" /><text
         y="-573.90796"
         x="451.00037"
         id="text3281"
         transform="scale(1,-1)"><tspan
           id="tspan3283"
           sodipodi:role="line"
           y="-573.90796"
           x="451.00037 454.52319 456.63309 460.15588 461.9173 465.44012 468.96292 472.13092"
           style="font-size:6.33599997px;font-variant:normal;font-weight:normal;writing-mode:lr-tb;fill:#000000;fill-opacity:1;fill-rule:nonzero;stroke:none;font-family:Arial;-inkscape-font-specification:Arial">protons </tspan></text>
<text
         y="-564.63611"
         x="451.00037"
         id="text3289"
         transform="scale(1,-1)"><tspan
           id="tspan3291"
           sodipodi:role="line"
           y="-564.63611"
           x="451.00037 452.40695 455.92978 459.45258"
           style="font-size:6.33599997px;font-variant:normal;font-weight:normal;writing-mode:lr-tb;fill:#000000;fill-opacity:1;fill-rule:nonzero;stroke:none;font-family:Arial;-inkscape-font-specification:Arial">ions</tspan></text>
</g><g
       id="g3526"><path
         inkscape:connector-curvature="0"
         id="path3049"
         style="fill:none;stroke:#0aa74c;stroke-width:2;stroke-linecap:butt;stroke-linejoin:miter;stroke-miterlimit:4;stroke-opacity:1;stroke-dasharray:none"
         d="m 118.62327,505.45706 c 50.2383,-58.6036 137.0752,-64.294 193.9493,-12.7071" /><path
         inkscape:connector-curvature="0"
         id="path3051"
         style="fill:none;stroke:#0aa74c;stroke-width:2;stroke-linecap:butt;stroke-linejoin:miter;stroke-miterlimit:4;stroke-opacity:1;stroke-dasharray:none"
         d="m 319.18777,499.89406 c 47.3594,49.9043 47.3594,130.8198 0,180.7251" /><path
         inkscape:connector-curvature="0"
         id="path3053"
         style="fill:none;stroke:#0aa74c;stroke-width:2;stroke-linecap:butt;stroke-linejoin:miter;stroke-miterlimit:4;stroke-opacity:1;stroke-dasharray:none"
         d="m 315.60577,684.21386 c -51.9971,52.0791 -136.3047,52.0791 -188.3018,0" /><path
         inkscape:connector-curvature="0"
         id="path3055"
         style="fill:none;stroke:#0aa74c;stroke-width:2;stroke-linecap:butt;stroke-linejoin:miter;stroke-miterlimit:4;stroke-opacity:1;stroke-dasharray:none"
         d="m 127.90357,684.20896 c -51.031703,-51.6665 -51.031703,-135.4394 0,-187.1059" /><path
         inkscape:connector-curvature="0"
         id="path3057"
         style="fill:none;stroke:#0aa74c;stroke-width:2;stroke-linecap:butt;stroke-linejoin:miter;stroke-miterlimit:4;stroke-opacity:1;stroke-dasharray:none"
         d="m 226.76297,385.08986 -6.0186,-27.5616 -8.2373,-32.9472" /><path
         inkscape:connector-curvature="0"
         id="path3059"
         style="fill:none;stroke:#0aa74c;stroke-width:2;stroke-linecap:butt;stroke-linejoin:miter;stroke-miterlimit:4;stroke-opacity:1;stroke-dasharray:none"
         d="m 223.12037,368.61526 c 1.584,7.2871 6.9697,12.3564 7.7617,2.6933 0.9356,-11.4199 2.0586,-22.8086 2.0586,-22.8086 l 14.2559,-14.7324" /><path
         inkscape:connector-curvature="0"
         id="path3061"
         style="fill:none;stroke:#f14d3e;stroke-width:2;stroke-linecap:butt;stroke-linejoin:miter;stroke-miterlimit:4;stroke-opacity:1;stroke-dasharray:none"
         d="m 126.52177,495.15816 c 52.6035,-52.6035 137.8935,-52.6035 190.498,10e-4" /><path
         inkscape:connector-curvature="0"
         id="path3063"
         style="fill:none;stroke:#0aa74c;stroke-width:2;stroke-linecap:butt;stroke-linejoin:miter;stroke-miterlimit:4;stroke-opacity:1;stroke-dasharray:none"
         d="m 222.01397,445.82906 c 34.8203,0 63.0498,28.2285 63.0498,63.0508 0,34.8203 -28.2295,63.0488 -63.0498,63.0488 -34.8213,0 -63.0498,-28.2285 -63.0498,-63.0488 0,-34.8223 28.2285,-63.0508 63.0498,-63.0508 z" /><path
         inkscape:connector-curvature="0"
         id="path3065"
         style="fill:none;stroke:#f14d3e;stroke-width:2;stroke-linecap:butt;stroke-linejoin:miter;stroke-miterlimit:4;stroke-opacity:1;stroke-dasharray:none"
         d="m 222.01297,447.27636 c 34.0224,0 61.6035,27.5811 61.6035,61.6035 0,34.0225 -27.5811,61.6035 -61.6035,61.6035 -34.022,0 -61.6035,-27.581 -61.6035,-61.6035 0,-34.0224 27.5815,-61.6035 61.6035,-61.6035 z" /><path
         inkscape:connector-curvature="0"
         id="path3081"
         style="fill:none;stroke:#f14d3e;stroke-width:2;stroke-linecap:butt;stroke-linejoin:miter;stroke-miterlimit:4;stroke-opacity:1;stroke-dasharray:none"
         d="m 317.01977,495.15916 c 52.6045,52.6025 52.6045,137.8936 0,190.4981" /><path
         inkscape:connector-curvature="0"
         id="path3083"
         style="fill:none;stroke:#f14d3e;stroke-width:2;stroke-linecap:butt;stroke-linejoin:miter;stroke-miterlimit:4;stroke-opacity:1;stroke-dasharray:none"
         d="m 317.01977,685.65726 c -52.6045,52.6044 -137.8945,52.6044 -190.498,0" /><path
         inkscape:connector-curvature="0"
         id="path3085"
         style="fill:none;stroke:#f14d3e;stroke-width:2;stroke-linecap:butt;stroke-linejoin:miter;stroke-miterlimit:4;stroke-opacity:1;stroke-dasharray:none"
         d="m 126.52177,685.65726 c -52.604503,-52.6045 -52.604503,-137.8956 0,-190.4991" /><path
         inkscape:connector-curvature="0"
         id="path3087"
         style="fill:none;stroke:#0aa74c;stroke-width:2;stroke-linecap:butt;stroke-linejoin:miter;stroke-miterlimit:4;stroke-opacity:1;stroke-dasharray:none"
         d="m 251.40847,350.24216 -82.2236,51.5195 -10.1372,106.0225" /><path
         inkscape:connector-curvature="0"
         id="path3089"
         style="fill:none;stroke:#f14d3e;stroke-width:2;stroke-linecap:butt;stroke-linejoin:miter;stroke-miterlimit:4;stroke-opacity:1;stroke-dasharray:none"
         d="m 269.53147,346.21876 c 17.8526,0 32.3252,14.4726 32.3252,32.3232 0,17.8526 -14.4726,32.3252 -32.3252,32.3252 -17.8515,0 -32.3232,-14.4726 -32.3232,-32.3252 0,-17.8506 14.4717,-32.3232 32.3232,-32.3232 z" /><path
         inkscape:connector-curvature="0"
         id="path3091"
         style="fill:none;stroke:#0aa74c;stroke-width:2;stroke-linecap:butt;stroke-linejoin:miter;stroke-miterlimit:4;stroke-opacity:1;stroke-dasharray:none"
         d="m 269.53147,344.92576 c 18.5655,0 33.6172,15.0508 33.6172,33.6162 0,18.5664 -15.0517,33.6172 -33.6172,33.6172 -18.5654,0 -33.6162,-15.0508 -33.6162,-33.6172 0,-18.5654 15.0508,-33.6162 33.6162,-33.6162 z" /><path
         inkscape:connector-curvature="0"
         id="path3099"
         style="fill:none;stroke:#f14d3e;stroke-width:2;stroke-linecap:butt;stroke-linejoin:miter;stroke-miterlimit:4;stroke-opacity:1;stroke-dasharray:none"
         d="m 219.00217,380.17386 c 5.9522,0 10.7764,4.8242 10.7764,10.7773 0,5.9512 -4.8242,10.7754 -10.7764,10.7754 -5.9521,0 -10.7763,-4.8242 -10.7763,-10.7754 0,-5.9531 4.8242,-10.7773 10.7763,-10.7773 z" /><path
         inkscape:connector-curvature="0"
         id="path3101"
         style="fill:none;stroke:#0aa74c;stroke-width:2;stroke-linecap:butt;stroke-linejoin:miter;stroke-miterlimit:4;stroke-opacity:1;stroke-dasharray:none"
         d="m 219.00217,381.15136 c 5.3418,0 9.6729,4.3877 9.6729,9.7998 0,5.4111 -4.3311,9.7979 -9.6729,9.7979 -5.3427,0 -9.6733,-4.3868 -9.6733,-9.7979 0,-5.4121 4.3306,-9.7998 9.6733,-9.7998 z" /><path
         inkscape:connector-curvature="0"
         id="path3103"
         style="fill:none;stroke:#f14d3e;stroke-width:2;stroke-linecap:butt;stroke-linejoin:miter;stroke-miterlimit:4;stroke-opacity:1;stroke-dasharray:none"
         d="m 247.35577,402.19726 -21.0674,-19.167" /><path
         inkscape:connector-curvature="0"
         id="path3105"
         style="fill:none;stroke:#0aa74c;stroke-width:2;stroke-linecap:butt;stroke-linejoin:miter;stroke-miterlimit:4;stroke-opacity:1;stroke-dasharray:none"
         d="m 225.81377,383.98046 21.0664,19.167" /><path
         inkscape:connector-curvature="0"
         id="path3113"
         style="fill:none;stroke:#f14d3e;stroke-width:2;stroke-linecap:butt;stroke-linejoin:miter;stroke-miterlimit:4;stroke-opacity:1;stroke-dasharray:none"
         d="m 252.20047,351.25296 -81.7217,50.9443 -10.1377,106.0225" /><path
         inkscape:connector-curvature="0"
         id="path3121"
         style="fill:none;stroke:#f14d3e;stroke-width:2;stroke-linecap:butt;stroke-linejoin:miter;stroke-miterlimit:4;stroke-opacity:1;stroke-dasharray:none"
         d="m 228.03057,385.08986 -6.0196,-27.5616 -26.2939,-32.4726" /><path
         inkscape:connector-curvature="0"
         id="path3123"
         style="fill:#000000;fill-opacity:1;fill-rule:nonzero;stroke:none"
         d="m 199.51097,320.73536 0,6.6445 -6.9809,0 0,-6.6445 6.9809,0 z" /><path
         inkscape:connector-curvature="0"
         id="path3125"
         style="fill:#000000;fill-opacity:1;fill-rule:nonzero;stroke:none"
         d="m 215.98467,320.73536 0,6.6445 -6.9805,0 0,-6.6445 6.9805,0 z" /><path
         inkscape:connector-curvature="0"
         id="path3127"
         style="fill:none;stroke:#f14d3e;stroke-width:2;stroke-linecap:butt;stroke-linejoin:miter;stroke-miterlimit:4;stroke-opacity:1;stroke-dasharray:none"
         d="m 253.29907,312.81156 c 3.3037,0 5.9844,2.6787 5.9844,5.9843 l 0,11.2539 c 0,3.3047 -2.6807,5.9834 -5.9844,5.9834 l -11.2539,0 c -3.3037,0 -5.9834,-2.6787 -5.9834,-5.9834 l 0,-11.2539 c 0,-3.3056 2.6797,-5.9843 5.9834,-5.9843 l 11.2539,0 z" /><path
         inkscape:connector-curvature="0"
         id="path3129"
         style="fill:none;stroke:#0aa74c;stroke-width:2;stroke-linecap:butt;stroke-linejoin:miter;stroke-miterlimit:4;stroke-opacity:1;stroke-dasharray:none"
         d="m 252.26687,333.90426 c 2.6992,0 4.8867,-2.1875 4.8867,-4.8867 l 0,-9.1894 c 0,-2.6993 -2.1875,-4.8877 -4.8867,-4.8877 l -9.1895,0 c -2.6992,0 -4.8867,2.1884 -4.8867,4.8877 l 0,9.1894 c 0,2.6992 2.1875,4.8867 4.8867,4.8867 l 1.1778,0.374 c 0,0 11.624,-0.3486 8.0117,-0.374 z" /><path
         inkscape:connector-curvature="0"
         id="path3131"
         style="fill:none;stroke:#f14d3e;stroke-width:2;stroke-linecap:butt;stroke-linejoin:miter;stroke-miterlimit:4;stroke-opacity:1;stroke-dasharray:none"
         d="m 264.30397,338.99506 0,0" /><path
         inkscape:connector-curvature="0"
         id="path3177"
         style="fill:#f14d3e;fill-opacity:1;fill-rule:nonzero;stroke:none"
         d="m 231.85277,721.72846 -6.8877,3.7129 7.3897,2.2051 -0.502,-5.918 z" /><path
         inkscape:connector-curvature="0"
         id="path3179"
         style="fill:#f14d3e;fill-opacity:1;fill-rule:nonzero;stroke:none"
         d="m 114.21117,506.08346 8.0943,-4.5669 -2.4668,8.8203 -5.6275,-4.2534 z" /><path
         inkscape:connector-curvature="0"
         id="path3181"
         style="fill:#f14d3e;fill-opacity:1;fill-rule:nonzero;stroke:none"
         d="m 241.79807,367.18166 -3.9785,4.832 -0.5888,-6.1416 4.5673,1.3096 z" /><path
         inkscape:connector-curvature="0"
         id="path3187"
         style="fill:#f14d3e;fill-opacity:1;fill-rule:nonzero;stroke:none"
         d="m 234.69947,386.80856 2.374,5.792 -5.6884,-2.3867 3.3144,-3.4053 z" /><path
         inkscape:connector-curvature="0"
         id="path3191"
         style="fill:#f14d3e;fill-opacity:1;fill-rule:nonzero;stroke:none"
         d="m 211.60377,340.82026 1.8477,5.9815 -5.4541,-2.8858 3.6064,-3.0957 z" /><path
         inkscape:connector-curvature="0"
         id="path3193"
         style="fill:#f14d3e;fill-opacity:1;fill-rule:nonzero;stroke:none"
         d="m 281.01787,514.30176 2.9746,-5.5088 1.7607,5.9121 -4.7353,-0.4033 z" /><path
         inkscape:connector-curvature="0"
         id="path3199"
         style="fill:#f14d3e;fill-opacity:1;fill-rule:nonzero;stroke:none"
         d="m 323.48947,506.62006 -2.7265,-7.3349 7.0078,3.2178 -4.2813,4.1171 z" /><path
         inkscape:connector-curvature="0"
         id="path3201"
         style="fill:#f14d3e;fill-opacity:1;fill-rule:nonzero;stroke:none"
         d="m 215.35577,727.91406 6.6494,-4.125 -7.5098,-1.752 0.8604,5.877 z" /><path
         inkscape:connector-curvature="0"
         id="path3203"
         style="fill:#f14d3e;fill-opacity:1;fill-rule:nonzero;stroke:none"
         d="m 132.90357,494.79296 -8.2436,4.3213 2.6084,-8.1973 5.6352,3.876 z" /><path
         inkscape:connector-curvature="0"
         id="path3205"
         style="fill:#fee901;fill-opacity:1;fill-rule:nonzero;stroke:#d9b712;stroke-width:2;stroke-linecap:butt;stroke-linejoin:miter;stroke-miterlimit:4;stroke-opacity:1;stroke-dasharray:none"
         d="m 310.83227,507.13966 16.959,-16.96" /><path
         inkscape:connector-curvature="0"
         id="path3207"
         style="fill:#fee901;fill-opacity:1;fill-rule:nonzero;stroke:#d9b712;stroke-width:2;stroke-linecap:butt;stroke-linejoin:miter;stroke-miterlimit:4;stroke-opacity:1;stroke-dasharray:none"
         d="m 327.08127,489.79006 1.4981,-0.4004 -0.4014,1.4961 -1.0967,-1.0957 z" /><path
         inkscape:connector-curvature="0"
         id="path3209"
         style="fill:#fee901;fill-opacity:1;fill-rule:nonzero;stroke:#d9b712;stroke-width:2;stroke-linecap:butt;stroke-linejoin:miter;stroke-miterlimit:4;stroke-opacity:1;stroke-dasharray:none"
         d="m 311.54227,507.52826 -1.4981,0.4009 0.4024,-1.4966 1.0957,1.0957 z" /><path
         inkscape:connector-curvature="0"
         id="path3211"
         style="fill:#fee901;fill-opacity:1;fill-rule:nonzero;stroke:#d9b712;stroke-width:2;stroke-linecap:butt;stroke-linejoin:miter;stroke-miterlimit:4;stroke-opacity:1;stroke-dasharray:none"
         d="m 310.53937,500.97166 17.4931,-4.6875" /><path
         inkscape:connector-curvature="0"
         id="path3213"
         style="fill:#fee901;fill-opacity:1;fill-rule:nonzero;stroke:#d9b712;stroke-width:2;stroke-linecap:butt;stroke-linejoin:miter;stroke-miterlimit:4;stroke-opacity:1;stroke-dasharray:none"
         d="m 327.61357,495.59126 1.4961,0.4019 -1.0957,1.0957 -0.4004,-1.4976 z" /><path
         inkscape:connector-curvature="0"
         id="path3215"
         style="fill:#fee901;fill-opacity:1;fill-rule:nonzero;stroke:#d9b712;stroke-width:2;stroke-linecap:butt;stroke-linejoin:miter;stroke-miterlimit:4;stroke-opacity:1;stroke-dasharray:none"
         d="m 310.95827,501.66406 -1.4971,-0.4009 1.0967,-1.0962 0.4004,1.4971 z" /><path
         inkscape:connector-curvature="0"
         id="path3217"
         style="fill:#fee901;fill-opacity:1;fill-rule:nonzero;stroke:#d9b712;stroke-width:2;stroke-linecap:butt;stroke-linejoin:miter;stroke-miterlimit:4;stroke-opacity:1;stroke-dasharray:none"
         d="m 317.02567,507.44876 4.6865,-17.4947" /><path
         inkscape:connector-curvature="0"
         id="path3219"
         style="fill:#fee901;fill-opacity:1;fill-rule:nonzero;stroke:#d9b712;stroke-width:2;stroke-linecap:butt;stroke-linejoin:miter;stroke-miterlimit:4;stroke-opacity:1;stroke-dasharray:none"
         d="m 320.90357,489.97266 1.0967,-1.0967 0.4004,1.4971 -1.4971,-0.4004 z" /><path
         inkscape:connector-curvature="0"
         id="path3221"
         style="fill:#fee901;fill-opacity:1;fill-rule:nonzero;stroke:#d9b712;stroke-width:2;stroke-linecap:butt;stroke-linejoin:miter;stroke-miterlimit:4;stroke-opacity:1;stroke-dasharray:none"
         d="m 317.83427,507.43066 -1.0948,1.0957 -0.4013,-1.4971 1.4961,0.4014 z" /><path
         inkscape:connector-curvature="0"
         id="path3223"
         style="fill:#fee901;fill-opacity:1;fill-rule:nonzero;stroke:#d9b712;stroke-width:2;stroke-linecap:butt;stroke-linejoin:miter;stroke-miterlimit:4;stroke-opacity:1;stroke-dasharray:none"
         d="m 222.43097,736.28316 1.7626,-23.9199" /><path
         inkscape:connector-curvature="0"
         id="path3225"
         style="fill:#fee901;fill-opacity:1;fill-rule:nonzero;stroke:#d9b712;stroke-width:2;stroke-linecap:butt;stroke-linejoin:miter;stroke-miterlimit:4;stroke-opacity:1;stroke-dasharray:none"
         d="m 223.40257,712.53226 0.8721,-1.2823 0.6738,1.3965 -1.5459,-0.1142 z" /><path
         inkscape:connector-curvature="0"
         id="path3229"
         style="fill:#fee901;fill-opacity:1;fill-rule:nonzero;stroke:#d9b712;stroke-width:2;stroke-linecap:butt;stroke-linejoin:miter;stroke-miterlimit:4;stroke-opacity:1;stroke-dasharray:none"
         d="m 218.17997,731.80466 10.1845,-14.9765" /><path
         inkscape:connector-curvature="0"
         id="path3231"
         style="fill:#fee901;fill-opacity:1;fill-rule:nonzero;stroke:#d9b712;stroke-width:2;stroke-linecap:butt;stroke-linejoin:miter;stroke-miterlimit:4;stroke-opacity:1;stroke-dasharray:none"
         d="m 227.59397,716.57766 1.3955,-0.6734 -0.1142,1.5449 -1.2813,-0.8715 z" /><path
         inkscape:connector-curvature="0"
         id="path3233"
         style="fill:#fee901;fill-opacity:1;fill-rule:nonzero;stroke:#d9b712;stroke-width:2;stroke-linecap:butt;stroke-linejoin:miter;stroke-miterlimit:4;stroke-opacity:1;stroke-dasharray:none"
         d="m 218.95047,732.05366 -1.3955,0.6748 0.1142,-1.5454 1.2813,0.8706 z" /><path
         inkscape:connector-curvature="0"
         id="path3235"
         style="fill:#fee901;fill-opacity:1;fill-rule:nonzero;stroke:#d9b712;stroke-width:2;stroke-linecap:butt;stroke-linejoin:miter;stroke-miterlimit:4;stroke-opacity:1;stroke-dasharray:none"
         d="m 227.32257,732.47166 -7.878,-16.3086" /><path
         inkscape:connector-curvature="0"
         id="path3237"
         style="fill:#fee901;fill-opacity:1;fill-rule:nonzero;stroke:#d9b712;stroke-width:2;stroke-linecap:butt;stroke-linejoin:miter;stroke-miterlimit:4;stroke-opacity:1;stroke-dasharray:none"
         d="m 218.84307,716.70606 0.1152,-1.5459 1.2803,0.8711 -1.3955,0.6748 z" /><path
         inkscape:connector-curvature="0"
         id="path3241"
         style="fill:#11ab4b;fill-opacity:1;fill-rule:nonzero;stroke:#0aa74c;stroke-width:2;stroke-linecap:butt;stroke-linejoin:miter;stroke-miterlimit:4;stroke-opacity:1;stroke-dasharray:none"
         d="m 165.45827,465.69046 -2.8291,5.5839 -1.9141,-5.8642 4.7432,0.2803 z" /><path
         inkscape:connector-curvature="0"
         id="path3243"
         style="fill:#11ab4b;fill-opacity:1;fill-rule:nonzero;stroke:#0aa74c;stroke-width:2;stroke-linecap:butt;stroke-linejoin:miter;stroke-miterlimit:4;stroke-opacity:1;stroke-dasharray:none"
         d="m 238.47097,391.87596 2.0908,5.9014 -5.5664,-2.6602 3.4756,-3.2412 z" /><path
         inkscape:connector-curvature="0"
         id="path3245"
         style="fill:#11ab4b;fill-opacity:1;fill-rule:nonzero;stroke:#0aa74c;stroke-width:2;stroke-linecap:butt;stroke-linejoin:miter;stroke-miterlimit:4;stroke-opacity:1;stroke-dasharray:none"
         d="m 218.35277,339.08686 -0.4843,6.2413 -4.0079,-4.6905 4.4922,-1.5508 z" /><path
         inkscape:connector-curvature="0"
         id="path3247"
         style="fill:#11ab4b;fill-opacity:1;fill-rule:nonzero;stroke:#0aa74c;stroke-width:2;stroke-linecap:butt;stroke-linejoin:miter;stroke-miterlimit:4;stroke-opacity:1;stroke-dasharray:none"
         d="m 294.29617,397.05466 5.2168,-3.4629 -1.2285,6.0469 -3.9883,-2.584 z" /><path
         inkscape:connector-curvature="0"
         id="path3251"
         style="fill:#564ca9;fill-opacity:1;fill-rule:nonzero;stroke:none"
         d="m 318.80107,678.21186 c 2.0498,0 3.7109,1.5801 3.7109,3.5298 0,1.9497 -1.6611,3.5298 -3.7109,3.5298 -2.0498,0 -3.71,-1.5801 -3.71,-3.5298 0,-1.9497 1.6602,-3.5298 3.71,-3.5298 z" /><path
         inkscape:connector-curvature="0"
         id="path3253"
         style="fill:#564ca9;fill-opacity:1;fill-rule:nonzero;stroke:none"
         d="m 128.62237,681.55276 c 2.0493,0 3.7109,1.581 3.7109,3.5302 0,1.9497 -1.6616,3.5303 -3.7109,3.5303 -2.0498,0 -3.7115,-1.5806 -3.7115,-3.5303 0,-1.9492 1.6617,-3.5302 3.7115,-3.5302 z" /><path
         inkscape:connector-curvature="0"
         id="path3255"
         style="fill:#f680c5;fill-opacity:1;fill-rule:nonzero;stroke:#d9b712;stroke-width:2;stroke-linecap:butt;stroke-linejoin:miter;stroke-miterlimit:4;stroke-opacity:1;stroke-dasharray:none"
         d="m 222.13987,468.97946 -0.5644,-23.9775" /><path
         inkscape:connector-curvature="0"
         id="path3257"
         style="fill:#f680c5;fill-opacity:1;fill-rule:nonzero;stroke:#d9b712;stroke-width:2;stroke-linecap:butt;stroke-linejoin:miter;stroke-miterlimit:4;stroke-opacity:1;stroke-dasharray:none"
         d="m 220.80297,445.24606 0.7432,-1.3594 0.8057,1.3223 -1.5489,0.0371 z" /><path
         inkscape:connector-curvature="0"
         id="path3259"
         style="fill:#f680c5;fill-opacity:1;fill-rule:nonzero;stroke:#d9b712;stroke-width:2;stroke-linecap:butt;stroke-linejoin:miter;stroke-miterlimit:4;stroke-opacity:1;stroke-dasharray:none"
         d="m 222.91137,468.73536 -0.7431,1.3603 -0.8067,-1.3242 1.5498,-0.0361 z" /><path
         inkscape:connector-curvature="0"
         id="path3261"
         style="fill:#f680c5;fill-opacity:1;fill-rule:nonzero;stroke:#d9b712;stroke-width:2;stroke-linecap:butt;stroke-linejoin:miter;stroke-miterlimit:4;stroke-opacity:1;stroke-dasharray:none"
         d="m 217.47387,464.93556 8.6846,-15.8946" /><path
         inkscape:connector-curvature="0"
         id="path3263"
         style="fill:#f680c5;fill-opacity:1;fill-rule:nonzero;stroke:#d9b712;stroke-width:2;stroke-linecap:butt;stroke-linejoin:miter;stroke-miterlimit:4;stroke-opacity:1;stroke-dasharray:none"
         d="m 225.36847,448.86716 1.3232,-0.8066 0.0361,1.5498 -1.3593,-0.7432 z" /><path
         inkscape:connector-curvature="0"
         id="path3265"
         style="fill:#f680c5;fill-opacity:1;fill-rule:nonzero;stroke:#d9b712;stroke-width:2;stroke-linecap:butt;stroke-linejoin:miter;stroke-miterlimit:4;stroke-opacity:1;stroke-dasharray:none"
         d="m 218.26587,465.10936 -1.3232,0.8057 -0.0371,-1.5498 1.3603,0.7441 z" /><path
         inkscape:connector-curvature="0"
         id="path3267"
         style="fill:#f680c5;fill-opacity:1;fill-rule:nonzero;stroke:#d9b712;stroke-width:2;stroke-linecap:butt;stroke-linejoin:miter;stroke-miterlimit:4;stroke-opacity:1;stroke-dasharray:none"
         d="m 226.63897,464.71286 -9.4229,-15.4678" /><path
         inkscape:connector-curvature="0"
         id="path3269"
         style="fill:#f680c5;fill-opacity:1;fill-rule:nonzero;stroke:#d9b712;stroke-width:2;stroke-linecap:butt;stroke-linejoin:miter;stroke-miterlimit:4;stroke-opacity:1;stroke-dasharray:none"
         d="m 216.67017,449.84276 -0.0361,-1.5498 1.3603,0.7432 -1.3242,0.8066 z" /><path
         inkscape:connector-curvature="0"
         id="path3271"
         style="fill:#f680c5;fill-opacity:1;fill-rule:nonzero;stroke:#d9b712;stroke-width:2;stroke-linecap:butt;stroke-linejoin:miter;stroke-miterlimit:4;stroke-opacity:1;stroke-dasharray:none"
         d="m 227.18387,464.11326 0.0381,1.5498 -1.3604,-0.7431 1.3223,-0.8067 z" /><path
         inkscape:connector-curvature="0"
         id="path3273"
         style="fill:#f14d3e;fill-opacity:1;fill-rule:nonzero;stroke:none"
         d="m 214.54617,452.53516 6.7969,3.8789 -7.4414,2.0264 0.6445,-5.9053 z" /><path
         inkscape:connector-curvature="0"
         id="path3275"
         style="fill:#f14d3e;fill-opacity:1;fill-rule:nonzero;stroke:none"
         d="m 230.71217,460.45506 -6.6641,-4.1006 7.5049,-1.7783 -0.8408,5.8789 z" /><text
         y="-473.85254"
         x="205.93048"
         id="text3277"
         transform="scale(1,-1)"><tspan
           id="tspan3279"
           sodipodi:role="line"
           y="-473.85254"
           x="205.93048 212.08812 217.89507 223.70201 230.56389"
           style="font-size:9.50399971px;font-variant:normal;font-weight:bold;writing-mode:lr-tb;fill:#000000;fill-opacity:1;fill-rule:nonzero;stroke:none;font-family:Arial;-inkscape-font-specification:Arial Bold">ATLAS</tspan></text>
<text
         y="-513.71045"
         x="206.97098"
         id="text3309"
         transform="scale(1,-1)"><tspan
           id="tspan3311"
           sodipodi:role="line"
           y="-513.71045"
           x="206.97098 216.57578 226.18057"
           style="font-size:14.39999962px;font-variant:normal;font-weight:bold;writing-mode:lr-tb;fill:#0016bf;fill-opacity:1;fill-rule:nonzero;stroke:none;font-family:Arial;-inkscape-font-specification:Arial Bold">SPS</tspan></text>
<text
         y="-378.12006"
         x="263.12817"
         id="text3325"
         transform="scale(1,-1)"><tspan
           id="tspan3327"
           sodipodi:role="line"
           y="-378.12006"
           x="263.12817 269.53137"
           style="font-size:9.60000038px;font-variant:normal;font-weight:bold;writing-mode:lr-tb;fill:#0016bf;fill-opacity:1;fill-rule:nonzero;stroke:none;font-family:Arial;-inkscape-font-specification:Arial Bold">PS</tspan></text>
<text
         y="-322.36325"
         x="240.31277"
         id="text3329"
         transform="scale(1,-1)"><tspan
           id="tspan3331"
           sodipodi:role="line"
           y="-322.36325"
           x="240.31277 243.83559 248.06171 249.8231"
           style="font-size:6.33599997px;font-style:italic;font-variant:normal;writing-mode:lr-tb;fill:#000000;fill-opacity:1;fill-rule:nonzero;stroke:none;font-family:Arial;-inkscape-font-specification:Arial Italic">LEIR</tspan></text>
<text
         style="font-size:12px"
         y="-46.472012"
         x="384.2222"
         id="text3333"
         transform="matrix(0.61209456,0.79078458,0.79078458,-0.61209456,0,0)"><tspan
           id="tspan3335"
           sodipodi:role="line"
           y="-46.472012"
           x="384.2222 387.74509 389.50653 394.08118 398.30737 402.88205"
           style="font-size:6.3361125px;font-variant:normal;font-weight:normal;writing-mode:lr-tb;fill:#000000;fill-opacity:1;fill-rule:nonzero;stroke:none;font-family:Helvetica;-inkscape-font-specification:Helvetica">LINAC2</tspan></text>
<text
         style="font-size:12px"
         y="147.55653"
         x="367.48102"
         id="text3337"
         transform="matrix(0.2095043,0.97780773,0.97780773,-0.2095043,0,0)"><tspan
           id="tspan3339"
           sodipodi:role="line"
           y="147.55653"
           x="367.48102 371.00378 372.76517 377.33969 381.56577 386.14029"
           style="font-size:6.33590841px;font-variant:normal;font-weight:normal;writing-mode:lr-tb;fill:#000000;fill-opacity:1;fill-rule:nonzero;stroke:none;font-family:Helvetica;-inkscape-font-specification:Helvetica">LINAC3</tspan></text>
<text
         y="-314.12695"
         x="193.46167"
         id="text3341"
         transform="scale(1,-1)"><tspan
           id="tspan3343"
           y="-314.12695"
           x="193.46167"
           style="font-size:6.9696002px;font-variant:normal;font-weight:bold;writing-mode:lr-tb;fill:#000000;fill-opacity:1;fill-rule:nonzero;stroke:none;font-family:Times New Roman;-inkscape-font-specification:Times Bold">p</tspan></text>
<text
         y="-312.85934"
         x="205.99977"
         id="text3345"
         transform="scale(1,-1)"><tspan
           id="tspan3347"
           sodipodi:role="line"
           y="-312.85934"
           x="205.99977 210.25819 214.1333 215.8757 217.81325 221.29805 225.17314"
           style="font-size:6.9696002px;font-variant:normal;font-weight:bold;writing-mode:lr-tb;fill:#000000;fill-opacity:1;fill-rule:nonzero;stroke:none;font-family:Times New Roman;-inkscape-font-specification:Times Bold">Pb ions</tspan></text>
<text
         y="-388.89154"
         x="211.44067"
         id="text3365"
         transform="scale(1,-1)"><tspan
           id="tspan3367"
           sodipodi:role="line"
           y="-388.89154"
           x="211.44067 216.24307 221.04547"
           style="font-size:7.19999981px;font-variant:normal;font-weight:bold;writing-mode:lr-tb;fill:#0016bf;fill-opacity:1;fill-rule:nonzero;stroke:none;font-family:Arial;-inkscape-font-specification:Arial Bold">PSB</tspan></text>
<text
         style="fill:#000000"
         y="-491.27734"
         x="80.002167"
         id="text3397"
         transform="scale(1,-1)"><tspan
           id="tspan3399"
           sodipodi:role="line"
           y="-491.27734"
           x="80.002167 86.864059 92.670998 95.31311 102.175"
           style="font-size:9.50399971px;font-variant:normal;font-weight:bold;writing-mode:lr-tb;fill:#000000;fill-opacity:1;fill-rule:nonzero;stroke:none;font-family:Arial;-inkscape-font-specification:Arial Bold">ALICE</tspan></text>
<text
         style="fill:#000000"
         y="-702.47559"
         x="213.56277"
         id="text3401"
         transform="scale(1,-1)"><tspan
           id="tspan3403"
           sodipodi:role="line"
           y="-702.47559"
           x="213.56277 220.42467 228.34149"
           style="font-size:9.50399971px;font-variant:normal;font-weight:bold;writing-mode:lr-tb;fill:#000000;fill-opacity:1;fill-rule:nonzero;stroke:none;font-family:Arial;-inkscape-font-specification:Arial Bold">CMS</tspan></text>
<text
         y="-497.87494"
         x="334.23468"
         id="text3405"
         transform="scale(1,-1)"><tspan
           id="tspan3407"
           sodipodi:role="line"
           y="-497.87494"
           x="334.23468 340.04163 346.9035 353.76538 356.93024"
           style="font-size:9.50399971px;font-variant:normal;font-weight:bold;writing-mode:lr-tb;fill:#000000;fill-opacity:1;fill-rule:nonzero;stroke:none;font-family:Arial;-inkscape-font-specification:Arial Bold">LHC-b</tspan></text>
<text
         y="-659.19287"
         x="208.02907"
         id="text3413"
         transform="scale(1,-1)"><tspan
           id="tspan3415"
           sodipodi:role="line"
           y="-659.19287"
           x="208.02907 216.82747 227.22427"
           style="font-size:14.39999962px;font-variant:normal;font-weight:bold;writing-mode:lr-tb;fill:#0016bf;fill-opacity:1;fill-rule:nonzero;stroke:none;font-family:Arial;-inkscape-font-specification:Arial Bold">LHC</tspan></text>
<path
         inkscape:connector-curvature="0"
         id="path3417"
         style="fill:#11ab4b;fill-opacity:1;fill-rule:nonzero;stroke:#0aa74c;stroke-width:2;stroke-linecap:butt;stroke-linejoin:miter;stroke-miterlimit:4;stroke-opacity:1;stroke-dasharray:none"
         d="m 139.12867,488.66596 -5.2515,1.2168 2.0313,-4.7607 3.2202,3.5439 z" /><path
         inkscape:connector-curvature="0"
         id="path3419"
         style="fill:#11ab4b;fill-opacity:1;fill-rule:nonzero;stroke:#0aa74c;stroke-width:2;stroke-linecap:butt;stroke-linejoin:miter;stroke-miterlimit:4;stroke-opacity:1;stroke-dasharray:none"
         d="m 108.85767,515.29246 6.459,-4.4175 -1.4307,7.5772 -5.0283,-3.1597 z" /><path
         inkscape:connector-curvature="0"
         id="path3421"
         style="fill:none;stroke:#0aa74c;stroke-width:2;stroke-linecap:butt;stroke-linejoin:miter;stroke-miterlimit:4;stroke-opacity:1;stroke-dasharray:none"
         d="m 135.94797,489.27826 c 19.3448,-33.7626 66.6397,-51.8212 105.6363,-40.331" /><path
         inkscape:connector-curvature="0"
         id="path3431"
         style="fill:#f14d3e;fill-opacity:1;fill-rule:nonzero;stroke:none"
         d="m 168.02667,454.42576 -2.8291,5.585 -1.9151,-5.8653 4.7442,0.2803 z" /><path
         inkscape:connector-curvature="0"
         id="path3433"
         style="fill:#fee901;fill-opacity:1;fill-rule:nonzero;stroke:#d9b712;stroke-width:2;stroke-linecap:butt;stroke-linejoin:miter;stroke-miterlimit:4;stroke-opacity:1;stroke-dasharray:none"
         d="m 132.49247,509.13186 -16.9605,-16.96" /><path
         inkscape:connector-curvature="0"
         id="path3435"
         style="fill:#fee901;fill-opacity:1;fill-rule:nonzero;stroke:#d9b712;stroke-width:2;stroke-linecap:butt;stroke-linejoin:miter;stroke-miterlimit:4;stroke-opacity:1;stroke-dasharray:none"
         d="m 115.14337,492.88276 -0.4009,-1.498 1.4966,0.4014 -1.0957,1.0966 z" /><path
         inkscape:connector-curvature="0"
         id="path3437"
         style="fill:#fee901;fill-opacity:1;fill-rule:nonzero;stroke:#d9b712;stroke-width:2;stroke-linecap:butt;stroke-linejoin:miter;stroke-miterlimit:4;stroke-opacity:1;stroke-dasharray:none"
         d="m 132.88207,508.42186 0.4014,1.4976 -1.4971,-0.4019 1.0957,-1.0957 z" /><path
         inkscape:connector-curvature="0"
         id="path3439"
         style="fill:#fee901;fill-opacity:1;fill-rule:nonzero;stroke:#d9b712;stroke-width:2;stroke-linecap:butt;stroke-linejoin:miter;stroke-miterlimit:4;stroke-opacity:1;stroke-dasharray:none"
         d="m 126.32547,509.42476 -4.6885,-17.4941" /><path
         inkscape:connector-curvature="0"
         id="path3441"
         style="fill:#fee901;fill-opacity:1;fill-rule:nonzero;stroke:#d9b712;stroke-width:2;stroke-linecap:butt;stroke-linejoin:miter;stroke-miterlimit:4;stroke-opacity:1;stroke-dasharray:none"
         d="m 120.94557,492.35056 0.4004,-1.4971 1.0962,1.0967 -1.4966,0.4004 z" /><path
         inkscape:connector-curvature="0"
         id="path3443"
         style="fill:#fee901;fill-opacity:1;fill-rule:nonzero;stroke:#d9b712;stroke-width:2;stroke-linecap:butt;stroke-linejoin:miter;stroke-miterlimit:4;stroke-opacity:1;stroke-dasharray:none"
         d="m 127.01687,509.00536 -0.4009,1.4976 -1.0952,-1.0972 1.4961,-0.4004 z" /><path
         inkscape:connector-curvature="0"
         id="path3445"
         style="fill:#fee901;fill-opacity:1;fill-rule:nonzero;stroke:#d9b712;stroke-width:2;stroke-linecap:butt;stroke-linejoin:miter;stroke-miterlimit:4;stroke-opacity:1;stroke-dasharray:none"
         d="m 132.80157,502.93846 -17.4942,-4.687" /><path
         inkscape:connector-curvature="0"
         id="path3447"
         style="fill:#fee901;fill-opacity:1;fill-rule:nonzero;stroke:#d9b712;stroke-width:2;stroke-linecap:butt;stroke-linejoin:miter;stroke-miterlimit:4;stroke-opacity:1;stroke-dasharray:none"
         d="m 115.32497,499.06056 -1.0952,-1.0962 1.4961,-0.4009 -0.4009,1.4971 z" /><path
         inkscape:connector-curvature="0"
         id="path3449"
         style="fill:#fee901;fill-opacity:1;fill-rule:nonzero;stroke:#d9b712;stroke-width:2;stroke-linecap:butt;stroke-linejoin:miter;stroke-miterlimit:4;stroke-opacity:1;stroke-dasharray:none"
         d="m 132.78397,502.12886 1.0957,1.0952 -1.4966,0.4019 0.4009,-1.4971 z" /><path
         inkscape:connector-curvature="0"
         id="path3451"
         style="fill:none;stroke:#f14d3e;stroke-width:2;stroke-linecap:butt;stroke-linejoin:miter;stroke-miterlimit:4;stroke-opacity:1;stroke-dasharray:none"
         d="m 143.52027,482.76266 c 18.1953,-25.4189 59.8057,-40.6631 92.936,-34.0459" /><path
         inkscape:connector-curvature="0"
         id="path3453"
         style="fill:#11ab4b;fill-opacity:1;fill-rule:nonzero;stroke:#0aa74c;stroke-width:2;stroke-linecap:butt;stroke-linejoin:miter;stroke-miterlimit:4;stroke-opacity:1;stroke-dasharray:none"
         d="m 177.54567,457.64356 -7.7817,0.833 4.8476,-5.9971 2.9341,5.1641 z" /><path
         inkscape:connector-curvature="0"
         id="path3455"
         style="fill:#f14d3e;fill-opacity:1;fill-rule:nonzero;stroke:none"
         d="m 163.14817,467.49506 -7.3989,2.5508 3.3867,-6.9287 4.0122,4.3779 z" /><path
         inkscape:connector-curvature="0"
         id="path3457"
         style="fill:none;stroke:#f14d3e;stroke-width:2;stroke-linecap:butt;stroke-linejoin:miter;stroke-miterlimit:4;stroke-opacity:1;stroke-dasharray:none"
         d="m 223.72587,370.53226 c 1.6611,7.2861 7.3066,12.3554 8.1357,2.6923 0.9815,-11.4189 2.1582,-22.8086 2.1582,-22.8086 l 14.9414,-14.7304" /><path
         inkscape:connector-curvature="0"
         id="path3459"
         style="fill:none;stroke:#f14d3e;stroke-width:2;stroke-linecap:butt;stroke-linejoin:miter;stroke-miterlimit:4;stroke-opacity:1;stroke-dasharray:none"
         d="m 284.80787,509.89846 c 2.6074,-19.5703 15.7988,-26.1319 29.4639,-14.6548" /><path
         inkscape:connector-curvature="0"
         id="path3461"
         style="fill:none;stroke:#0aa74c;stroke-width:2;stroke-linecap:butt;stroke-linejoin:miter;stroke-miterlimit:4;stroke-opacity:1;stroke-dasharray:none"
         d="m 285.15947,512.49316 c 2.5508,-21.5244 16.5341,-28.5957 31.2334,-15.7959" /><path
         inkscape:connector-curvature="0"
         id="path3463"
         style="fill:#f14d3e;fill-opacity:1;fill-rule:nonzero;stroke:none"
         d="m 315.04227,490.65816 2.9687,7.2403 -7.1123,-2.9834 4.1436,-4.2569 z" /><path
         inkscape:connector-curvature="0"
         id="path3471"
         style="fill:#11ab4b;fill-opacity:1;fill-rule:nonzero;stroke:#0aa74c;stroke-width:2;stroke-linecap:butt;stroke-linejoin:miter;stroke-miterlimit:4;stroke-opacity:1;stroke-dasharray:none"
         d="m 290.53447,493.10546 7.375,-2.6211 -3.3184,6.96 -4.0566,-4.3389 z" /></g></g></svg>