<?xml version="1.0" encoding="UTF-8" standalone="no"?>
<!-- Created with Inkscape (http://www.inkscape.org/) -->

<svg
   xmlns:dc="http://purl.org/dc/elements/1.1/"
   xmlns:cc="http://creativecommons.org/ns#"
   xmlns:rdf="http://www.w3.org/1999/02/22-rdf-syntax-ns#"
   xmlns:svg="http://www.w3.org/2000/svg"
   xmlns="http://www.w3.org/2000/svg"
   xmlns:sodipodi="http://sodipodi.sourceforge.net/DTD/sodipodi-0.dtd"
   xmlns:inkscape="http://www.inkscape.org/namespaces/inkscape"
   width="372.04724"
   height="262.20471"
   id="svg2"
   version="1.1"
   inkscape:version="0.48.3.1 r9886"
   sodipodi:docname="trigger_assoc.svg">
  <sodipodi:namedview
     id="base"
     pagecolor="#ffffff"
     bordercolor="#666666"
     borderopacity="1.0"
     inkscape:pageopacity="0.0"
     inkscape:pageshadow="2"
     inkscape:zoom="0.98994949"
     inkscape:cx="318.22655"
     inkscape:cy="142.23862"
     inkscape:document-units="px"
     inkscape:current-layer="layer1"
     showgrid="false"
     units="in"
     fit-margin-top="0"
     fit-margin-left="0"
     fit-margin-right="0"
     fit-margin-bottom="0"
     inkscape:window-width="1680"
     inkscape:window-height="1026"
     inkscape:window-x="0"
     inkscape:window-y="24"
     inkscape:window-maximized="1" />
  <defs
     id="defs4">
    <marker
       inkscape:stockid="Arrow1Mstart"
       orient="auto"
       refY="0"
       refX="0"
       id="Arrow1Mstart"
       style="overflow:visible">
      <path
         id="path3797"
         d="M 0,0 5,-5 -12.5,0 5,5 0,0 z"
         style="fill-rule:evenodd;stroke:#000000;stroke-width:1pt"
         transform="matrix(0.4,0,0,0.4,4,0)"
         inkscape:connector-curvature="0" />
    </marker>
    <marker
       inkscape:stockid="Arrow1Mend"
       orient="auto"
       refY="0"
       refX="0"
       id="Arrow1Mend"
       style="overflow:visible">
      <path
         id="path3800"
         d="M 0,0 5,-5 -12.5,0 5,5 0,0 z"
         style="fill-rule:evenodd;stroke:#000000;stroke-width:1pt"
         transform="matrix(-0.4,0,0,-0.4,-4,0)"
         inkscape:connector-curvature="0" />
    </marker>
    <marker
       style="overflow:visible"
       id="Arrow1Lend"
       refX="0"
       refY="0"
       orient="auto"
       inkscape:stockid="Arrow1Lend">
      <path
         transform="matrix(-0.8,0,0,-0.8,-10,0)"
         style="fill-rule:evenodd;stroke:#000000;stroke-width:1pt"
         d="M 0,0 5,-5 -12.5,0 5,5 0,0 z"
         id="path3794"
         inkscape:connector-curvature="0" />
    </marker>
    <marker
       style="overflow:visible"
       id="Arrow1Lend8"
       refX="0"
       refY="0"
       orient="auto"
       inkscape:stockid="Arrow1Lend8">
      <path
         transform="matrix(-0.8,0,0,-0.8,-10,0)"
         style="fill:#00a800;fill-rule:evenodd;stroke:#00a800;stroke-width:1pt"
         d="M 0,0 5,-5 -12.5,0 5,5 0,0 z"
         id="path4315"
         inkscape:connector-curvature="0" />
    </marker>
    <marker
       style="overflow:visible"
       id="Arrow1Lendq"
       refX="0"
       refY="0"
       orient="auto"
       inkscape:stockid="Arrow1Lendq">
      <path
         transform="matrix(-0.8,0,0,-0.8,-10,0)"
         style="fill:#00a800;fill-rule:evenodd;stroke:#00a800;stroke-width:1pt"
         d="M 0,0 5,-5 -12.5,0 5,5 0,0 z"
         id="path4318"
         inkscape:connector-curvature="0" />
    </marker>
    <marker
       style="overflow:visible"
       id="Arrow1LendC"
       refX="0"
       refY="0"
       orient="auto"
       inkscape:stockid="Arrow1LendC">
      <path
         transform="matrix(-0.8,0,0,-0.8,-10,0)"
         style="fill:#00a800;fill-rule:evenodd;stroke:#00a800;stroke-width:1pt"
         d="M 0,0 5,-5 -12.5,0 5,5 0,0 z"
         id="path4321"
         inkscape:connector-curvature="0" />
    </marker>
    <marker
       style="overflow:visible"
       id="Arrow1Lend8C"
       refX="0"
       refY="0"
       orient="auto"
       inkscape:stockid="Arrow1Lend8C">
      <path
         transform="matrix(-0.8,0,0,-0.8,-10,0)"
         style="fill:#008400;fill-rule:evenodd;stroke:#008400;stroke-width:1pt"
         d="M 0,0 5,-5 -12.5,0 5,5 0,0 z"
         id="path4458"
         inkscape:connector-curvature="0" />
    </marker>
    <marker
       style="overflow:visible"
       id="Arrow1Lendq3"
       refX="0"
       refY="0"
       orient="auto"
       inkscape:stockid="Arrow1Lendq3">
      <path
         transform="matrix(-0.8,0,0,-0.8,-10,0)"
         style="fill:#008400;fill-rule:evenodd;stroke:#008400;stroke-width:1pt"
         d="M 0,0 5,-5 -12.5,0 5,5 0,0 z"
         id="path4461"
         inkscape:connector-curvature="0" />
    </marker>
    <marker
       style="overflow:visible"
       id="Arrow1LendCL"
       refX="0"
       refY="0"
       orient="auto"
       inkscape:stockid="Arrow1LendCL">
      <path
         transform="matrix(-0.8,0,0,-0.8,-10,0)"
         style="fill:#008400;fill-rule:evenodd;stroke:#008400;stroke-width:1pt"
         d="M 0,0 5,-5 -12.5,0 5,5 0,0 z"
         id="path4464"
         inkscape:connector-curvature="0" />
    </marker>
    <marker
       style="overflow:visible"
       id="Arrow1Lendp"
       refX="0"
       refY="0"
       orient="auto"
       inkscape:stockid="Arrow1Lendp">
      <path
         transform="matrix(-0.8,0,0,-0.8,-10,0)"
         style="fill:#8e0000;fill-rule:evenodd;stroke:#8e0000;stroke-width:1pt"
         d="M 0,0 5,-5 -12.5,0 5,5 0,0 z"
         id="path4541"
         inkscape:connector-curvature="0" />
    </marker>
    <marker
       style="overflow:visible"
       id="Arrow1Lendt"
       refX="0"
       refY="0"
       orient="auto"
       inkscape:stockid="Arrow1Lendt">
      <path
         transform="matrix(-0.8,0,0,-0.8,-10,0)"
         style="fill:#8e0000;fill-rule:evenodd;stroke:#8e0000;stroke-width:1pt"
         d="M 0,0 5,-5 -12.5,0 5,5 0,0 z"
         id="path4544"
         inkscape:connector-curvature="0" />
    </marker>
    <marker
       style="overflow:visible"
       id="Arrow1LendM"
       refX="0"
       refY="0"
       orient="auto"
       inkscape:stockid="Arrow1LendM">
      <path
         transform="matrix(-0.8,0,0,-0.8,-10,0)"
         style="fill:#8e0000;fill-rule:evenodd;stroke:#8e0000;stroke-width:1pt"
         d="M 0,0 5,-5 -12.5,0 5,5 0,0 z"
         id="path4547"
         inkscape:connector-curvature="0" />
    </marker>
    <marker
       style="overflow:visible"
       id="Arrow1LendI"
       refX="0"
       refY="0"
       orient="auto"
       inkscape:stockid="Arrow1LendI">
      <path
         transform="matrix(-0.8,0,0,-0.8,-10,0)"
         style="fill:#8e0000;fill-rule:evenodd;stroke:#8e0000;stroke-width:1pt"
         d="M 0,0 5,-5 -12.5,0 5,5 0,0 z"
         id="path4550"
         inkscape:connector-curvature="0" />
    </marker>
    <marker
       style="overflow:visible"
       id="Arrow1LendIz"
       refX="0"
       refY="0"
       orient="auto"
       inkscape:stockid="Arrow1LendIz">
      <path
         transform="matrix(-0.8,0,0,-0.8,-10,0)"
         style="fill:#8e0000;fill-rule:evenodd;stroke:#8e0000;stroke-width:1pt"
         d="M 0,0 5,-5 -12.5,0 5,5 0,0 z"
         id="path4553"
         inkscape:connector-curvature="0" />
    </marker>
    <marker
       style="overflow:visible"
       id="Arrow1Lend7"
       refX="0"
       refY="0"
       orient="auto"
       inkscape:stockid="Arrow1Lend7">
      <path
         transform="matrix(-0.8,0,0,-0.8,-10,0)"
         style="fill:#000000;fill-rule:evenodd;stroke:#000000;stroke-width:1pt"
         d="M 0,0 5,-5 -12.5,0 5,5 0,0 z"
         id="path4650"
         inkscape:connector-curvature="0" />
    </marker>
    <marker
       style="overflow:visible"
       id="Arrow1LendV"
       refX="0"
       refY="0"
       orient="auto"
       inkscape:stockid="Arrow1LendV">
      <path
         transform="matrix(-0.8,0,0,-0.8,-10,0)"
         style="fill:#000000;fill-rule:evenodd;stroke:#000000;stroke-width:1pt"
         d="M 0,0 5,-5 -12.5,0 5,5 0,0 z"
         id="path4653"
         inkscape:connector-curvature="0" />
    </marker>
    <marker
       style="overflow:visible"
       id="Arrow1Lendb"
       refX="0"
       refY="0"
       orient="auto"
       inkscape:stockid="Arrow1Lendb">
      <path
         transform="matrix(-0.8,0,0,-0.8,-10,0)"
         style="fill:#000000;fill-rule:evenodd;stroke:#000000;stroke-width:1pt"
         d="M 0,0 5,-5 -12.5,0 5,5 0,0 z"
         id="path4656"
         inkscape:connector-curvature="0" />
    </marker>
    <marker
       style="overflow:visible"
       id="Arrow1Lendg"
       refX="0"
       refY="0"
       orient="auto"
       inkscape:stockid="Arrow1Lendg">
      <path
         transform="matrix(-0.8,0,0,-0.8,-10,0)"
         style="fill:#000000;fill-rule:evenodd;stroke:#000000;stroke-width:1pt"
         d="M 0,0 5,-5 -12.5,0 5,5 0,0 z"
         id="path4659"
         inkscape:connector-curvature="0" />
    </marker>
    <marker
       style="overflow:visible"
       id="Arrow1Lendo"
       refX="0"
       refY="0"
       orient="auto"
       inkscape:stockid="Arrow1Lendo">
      <path
         transform="matrix(-0.8,0,0,-0.8,-10,0)"
         style="fill:#000000;fill-rule:evenodd;stroke:#000000;stroke-width:1pt"
         d="M 0,0 5,-5 -12.5,0 5,5 0,0 z"
         id="path4662"
         inkscape:connector-curvature="0" />
    </marker>
    <marker
       style="overflow:visible"
       id="Arrow1LendJ"
       refX="0"
       refY="0"
       orient="auto"
       inkscape:stockid="Arrow1LendJ">
      <path
         transform="matrix(-0.8,0,0,-0.8,-10,0)"
         style="fill:#000000;fill-rule:evenodd;stroke:#000000;stroke-width:1pt"
         d="M 0,0 5,-5 -12.5,0 5,5 0,0 z"
         id="path4665"
         inkscape:connector-curvature="0" />
    </marker>
    <marker
       style="overflow:visible"
       id="Arrow1Lend7n"
       refX="0"
       refY="0"
       orient="auto"
       inkscape:stockid="Arrow1Lend7n">
      <path
         transform="matrix(-0.8,0,0,-0.8,-10,0)"
         style="fill:#5f5f5f;fill-rule:evenodd;stroke:#5f5f5f;stroke-width:1pt"
         d="M 0,0 5,-5 -12.5,0 5,5 0,0 z"
         id="path4786"
         inkscape:connector-curvature="0" />
    </marker>
    <marker
       style="overflow:visible"
       id="Arrow1LendVu"
       refX="0"
       refY="0"
       orient="auto"
       inkscape:stockid="Arrow1LendVu">
      <path
         transform="matrix(-0.8,0,0,-0.8,-10,0)"
         style="fill:#5f5f5f;fill-rule:evenodd;stroke:#5f5f5f;stroke-width:1pt"
         d="M 0,0 5,-5 -12.5,0 5,5 0,0 z"
         id="path4789"
         inkscape:connector-curvature="0" />
    </marker>
    <marker
       style="overflow:visible"
       id="Arrow1Lendbj"
       refX="0"
       refY="0"
       orient="auto"
       inkscape:stockid="Arrow1Lendbj">
      <path
         transform="matrix(-0.8,0,0,-0.8,-10,0)"
         style="fill:#5f5f5f;fill-rule:evenodd;stroke:#5f5f5f;stroke-width:1pt"
         d="M 0,0 5,-5 -12.5,0 5,5 0,0 z"
         id="path4792"
         inkscape:connector-curvature="0" />
    </marker>
    <marker
       style="overflow:visible"
       id="Arrow1Lendgo"
       refX="0"
       refY="0"
       orient="auto"
       inkscape:stockid="Arrow1Lendgo">
      <path
         transform="matrix(-0.8,0,0,-0.8,-10,0)"
         style="fill:#5f5f5f;fill-rule:evenodd;stroke:#5f5f5f;stroke-width:1pt"
         d="M 0,0 5,-5 -12.5,0 5,5 0,0 z"
         id="path4795"
         inkscape:connector-curvature="0" />
    </marker>
    <marker
       style="overflow:visible"
       id="Arrow1Lendos"
       refX="0"
       refY="0"
       orient="auto"
       inkscape:stockid="Arrow1Lendos">
      <path
         transform="matrix(-0.8,0,0,-0.8,-10,0)"
         style="fill:#5f5f5f;fill-rule:evenodd;stroke:#5f5f5f;stroke-width:1pt"
         d="M 0,0 5,-5 -12.5,0 5,5 0,0 z"
         id="path4798"
         inkscape:connector-curvature="0" />
    </marker>
    <marker
       style="overflow:visible"
       id="Arrow1LendJy"
       refX="0"
       refY="0"
       orient="auto"
       inkscape:stockid="Arrow1LendJy">
      <path
         transform="matrix(-0.8,0,0,-0.8,-10,0)"
         style="fill:#5f5f5f;fill-rule:evenodd;stroke:#5f5f5f;stroke-width:1pt"
         d="M 0,0 5,-5 -12.5,0 5,5 0,0 z"
         id="path4801"
         inkscape:connector-curvature="0" />
    </marker>
    <marker
       style="overflow:visible"
       id="Arrow1LendpZ"
       refX="0"
       refY="0"
       orient="auto"
       inkscape:stockid="Arrow1LendpZ">
      <path
         transform="matrix(-0.8,0,0,-0.8,-10,0)"
         style="fill:#b60000;fill-rule:evenodd;stroke:#b60000;stroke-width:1pt"
         d="M 0,0 5,-5 -12.5,0 5,5 0,0 z"
         id="path4946"
         inkscape:connector-curvature="0" />
    </marker>
    <marker
       style="overflow:visible"
       id="Arrow1Lendtz"
       refX="0"
       refY="0"
       orient="auto"
       inkscape:stockid="Arrow1Lendtz">
      <path
         transform="matrix(-0.8,0,0,-0.8,-10,0)"
         style="fill:#b60000;fill-rule:evenodd;stroke:#b60000;stroke-width:1pt"
         d="M 0,0 5,-5 -12.5,0 5,5 0,0 z"
         id="path4949"
         inkscape:connector-curvature="0" />
    </marker>
    <marker
       style="overflow:visible"
       id="Arrow1LendMG"
       refX="0"
       refY="0"
       orient="auto"
       inkscape:stockid="Arrow1LendMG">
      <path
         transform="matrix(-0.8,0,0,-0.8,-10,0)"
         style="fill:#b60000;fill-rule:evenodd;stroke:#b60000;stroke-width:1pt"
         d="M 0,0 5,-5 -12.5,0 5,5 0,0 z"
         id="path4952"
         inkscape:connector-curvature="0" />
    </marker>
    <marker
       style="overflow:visible"
       id="Arrow1LendIL"
       refX="0"
       refY="0"
       orient="auto"
       inkscape:stockid="Arrow1LendIL">
      <path
         transform="matrix(-0.8,0,0,-0.8,-10,0)"
         style="fill:#b60000;fill-rule:evenodd;stroke:#b60000;stroke-width:1pt"
         d="M 0,0 5,-5 -12.5,0 5,5 0,0 z"
         id="path4955"
         inkscape:connector-curvature="0" />
    </marker>
    <marker
       style="overflow:visible"
       id="Arrow1LendIz9"
       refX="0"
       refY="0"
       orient="auto"
       inkscape:stockid="Arrow1LendIz9">
      <path
         transform="matrix(-0.8,0,0,-0.8,-10,0)"
         style="fill:#b60000;fill-rule:evenodd;stroke:#b60000;stroke-width:1pt"
         d="M 0,0 5,-5 -12.5,0 5,5 0,0 z"
         id="path4958"
         inkscape:connector-curvature="0" />
    </marker>
    <marker
       style="overflow:visible"
       id="Arrow1LendpZo"
       refX="0"
       refY="0"
       orient="auto"
       inkscape:stockid="Arrow1LendpZo">
      <path
         transform="matrix(-0.8,0,0,-0.8,-10,0)"
         style="fill:#b60000;fill-rule:evenodd;stroke:#b60000;stroke-width:1pt"
         d="M 0,0 5,-5 -12.5,0 5,5 0,0 z"
         id="path5123"
         inkscape:connector-curvature="0" />
    </marker>
    <marker
       style="overflow:visible"
       id="Arrow1LendtzM"
       refX="0"
       refY="0"
       orient="auto"
       inkscape:stockid="Arrow1LendtzM">
      <path
         transform="matrix(-0.8,0,0,-0.8,-10,0)"
         style="fill:#b60000;fill-rule:evenodd;stroke:#b60000;stroke-width:1pt"
         d="M 0,0 5,-5 -12.5,0 5,5 0,0 z"
         id="path5126"
         inkscape:connector-curvature="0" />
    </marker>
    <marker
       style="overflow:visible"
       id="Arrow1LendMGZ"
       refX="0"
       refY="0"
       orient="auto"
       inkscape:stockid="Arrow1LendMGZ">
      <path
         transform="matrix(-0.8,0,0,-0.8,-10,0)"
         style="fill:#b60000;fill-rule:evenodd;stroke:#b60000;stroke-width:1pt"
         d="M 0,0 5,-5 -12.5,0 5,5 0,0 z"
         id="path5129"
         inkscape:connector-curvature="0" />
    </marker>
    <marker
       style="overflow:visible"
       id="Arrow1LendIL5"
       refX="0"
       refY="0"
       orient="auto"
       inkscape:stockid="Arrow1LendIL5">
      <path
         transform="matrix(-0.8,0,0,-0.8,-10,0)"
         style="fill:#b60000;fill-rule:evenodd;stroke:#b60000;stroke-width:1pt"
         d="M 0,0 5,-5 -12.5,0 5,5 0,0 z"
         id="path5132"
         inkscape:connector-curvature="0" />
    </marker>
    <marker
       style="overflow:visible"
       id="Arrow1LendIz9Q"
       refX="0"
       refY="0"
       orient="auto"
       inkscape:stockid="Arrow1LendIz9Q">
      <path
         transform="matrix(-0.8,0,0,-0.8,-10,0)"
         style="fill:#b60000;fill-rule:evenodd;stroke:#b60000;stroke-width:1pt"
         d="M 0,0 5,-5 -12.5,0 5,5 0,0 z"
         id="path5135"
         inkscape:connector-curvature="0" />
    </marker>
  </defs>
  <metadata
     id="metadata7">
    <rdf:RDF>
      <cc:Work
         rdf:about="">
        <dc:format>image/svg+xml</dc:format>
        <dc:type
           rdf:resource="http://purl.org/dc/dcmitype/StillImage" />
        <dc:title></dc:title>
      </cc:Work>
    </rdf:RDF>
  </metadata>
  <g
     transform="translate(0,-790.15503)"
     id="layer1"
     inkscape:groupmode="layer"
     inkscape:label="Layer 1">
    <flowRoot
       xml:space="preserve"
       id="flowRoot7793"
       style="font-size:40px;font-style:normal;font-weight:normal;line-height:125%;letter-spacing:0px;word-spacing:0px;fill:#000000;fill-opacity:1;stroke:none;font-family:Sans"
       transform="translate(0,674.35975)"><flowRegion
         id="flowRegion7795"><rect
           id="rect7797"
           width="70.714287"
           height="43.57143"
           x="360"
           y="168" /></flowRegion><flowPara
         id="flowPara7799"></flowPara></flowRoot>    <g
       id="g8145"
       transform="translate(36.85231,0)">
      <path
         style="fill:#ff2b00;fill-opacity:0.39215686;stroke:none"
         d="m 149.18354,792.3381 c -81.173135,0 -146.9895678,57.8633 -146.9895678,129.25418 0,71.39088 65.8164328,129.27572 146.9895678,129.27572 81.17315,0 146.96511,-57.88484 146.96511,-129.27572 0,-71.39087 -65.79196,-129.25418 -146.96511,-129.25418 z m 0,33.20666 c 60.316,0 109.20835,43.00027 109.20835,96.04752 0,53.04725 -48.89235,96.04762 -109.20835,96.04762 -60.315985,0 -109.208326,-43.00037 -109.208326,-96.04762 0,-53.04725 48.892341,-96.04752 109.208326,-96.04752 z"
         id="path2985"
         inkscape:connector-curvature="0" />
      <path
         style="fill:#deff00;fill-opacity:0.39215686;stroke:none"
         d="m 149.17132,847.22701 c -46.7063,0 -84.567327,33.29835 -84.567327,74.37603 0,41.07768 37.861027,74.37608 84.567327,74.37608 46.70629,0 84.56732,-33.2984 84.56732,-74.37608 0,-41.07768 -37.86103,-74.37603 -84.56732,-74.37603 z m 0,22.42472 c 32.62685,0 59.06988,23.25636 59.06988,51.95131 0,28.69496 -26.44303,51.95132 -59.06988,51.95132 -32.62686,0 -59.094358,-23.25636 -59.094358,-51.95132 0,-28.69495 26.467498,-51.95131 59.094358,-51.95131 z"
         id="path3757"
         inkscape:connector-curvature="0" />
      <path
         sodipodi:nodetypes="ccccccccccc"
         inkscape:connector-curvature="0"
         d="m 149.17132,922.60346 8.69815,-34.45813 m -8.69815,34.45813 -99.691925,-12.78681 M 149.17132,922.60346 41.065759,792.55177 m 108.105561,130.05169 -27.33704,20.00797 m 118.6676,-58.35655 -91.15583,38.40416 38.34564,-8.28105"
         style="fill:none;stroke:#5f5f5f;stroke-width:0.82267356px;stroke-linecap:butt;stroke-linejoin:miter;stroke-opacity:1;marker-end:none"
         id="path4257" />
      <path
         sodipodi:open="true"
         sodipodi:end="1.1255872"
         sodipodi:start="0.43853021"
         transform="matrix(0.86981483,0,0,0.77808714,-123.42851,777.54579)"
         d="m 361.32951,209.30698 c -5.1992,11.08604 -14.08063,20.02699 -25.1317,25.30011"
         sodipodi:ry="52.938919"
         sodipodi:rx="52.938919"
         sodipodi:cy="186.82863"
         sodipodi:cx="313.39984"
         id="path5248"
         style="fill:none;stroke:#000000;stroke-opacity:1;marker-start:url(#Arrow1Mstart);marker-end:url(#Arrow1Mend)"
         sodipodi:type="arc" />
      <path
         sodipodi:open="true"
         sodipodi:type="arc"
         style="fill:none;stroke:#000000;stroke-opacity:1;marker-start:url(#Arrow1Mstart);marker-end:url(#Arrow1Mend)"
         id="path5250"
         sodipodi:cx="313.39984"
         sodipodi:cy="186.82863"
         sodipodi:rx="47.719193"
         sodipodi:ry="47.719193"
         d="m 338.71123,146.37551 c 20.56266,12.86599 28.20194,39.11081 17.75648,61.00258"
         transform="matrix(0.86981483,0,0,0.77808714,-123.42851,777.54579)"
         sodipodi:start="5.2714891"
         sodipodi:end="6.7283793" />
      <path
         sodipodi:open="true"
         sodipodi:end="2.9658053"
         sodipodi:start="0.44944286"
         transform="matrix(0.86981483,0,0,0.77808714,-123.42851,777.54579)"
         d="m 368.92532,213.61235 c -14.79224,30.66588 -51.64332,43.534 -82.3092,28.74176 -17.83445,-8.60277 -30.45115,-25.24857 -33.914,-44.74431"
         sodipodi:ry="61.647766"
         sodipodi:rx="61.647766"
         sodipodi:cy="186.82863"
         sodipodi:cx="313.39984"
         id="path5749"
         style="fill:none;stroke:#000000;stroke-opacity:1;marker-start:url(#Arrow1Mstart);marker-end:url(#Arrow1Mend)"
         sodipodi:type="arc" />
      <text
         transform="scale(1.0573026,0.94580303)"
         sodipodi:linespacing="125%"
         id="text7801"
         y="1034.351"
         x="135.79807"
         style="font-size:32.90694046px;font-style:normal;font-weight:normal;line-height:125%;letter-spacing:0px;word-spacing:0px;fill:#000000;fill-opacity:1;stroke:none;font-family:Sans"
         xml:space="preserve"><tspan
           style="font-size:8.22673512px;font-style:normal;font-variant:normal;font-weight:normal;font-stretch:normal;text-align:start;line-height:125%;writing-mode:lr-tb;text-anchor:start;font-family:Sans;-inkscape-font-specification:Sans"
           y="1034.351"
           x="135.79807"
           id="tspan7803"
           sodipodi:role="line">Δφ</tspan></text>
      <text
         transform="scale(1.0573026,0.94580303)"
         xml:space="preserve"
         style="font-size:32.90694046px;font-style:normal;font-weight:normal;line-height:125%;letter-spacing:0px;word-spacing:0px;fill:#000000;fill-opacity:1;stroke:none;font-family:Sans"
         x="182.80798"
         y="972.06274"
         id="text7805"
         sodipodi:linespacing="125%"><tspan
           sodipodi:role="line"
           id="tspan7807"
           x="182.80798"
           y="972.06274"
           style="font-size:8.22673512px;font-style:normal;font-variant:normal;font-weight:normal;font-stretch:normal;text-align:start;line-height:125%;writing-mode:lr-tb;text-anchor:start;font-family:Sans;-inkscape-font-specification:Sans">Δφ</tspan></text>
      <text
         transform="scale(1.0573026,0.94580303)"
         sodipodi:linespacing="125%"
         id="text7809"
         y="1003.2068"
         x="161.06592"
         style="font-size:32.90694046px;font-style:normal;font-weight:normal;line-height:125%;letter-spacing:0px;word-spacing:0px;fill:#000000;fill-opacity:1;stroke:none;font-family:Sans"
         xml:space="preserve"><tspan
           style="font-size:8.22673512px;font-style:normal;font-variant:normal;font-weight:normal;font-stretch:normal;text-align:start;line-height:125%;writing-mode:lr-tb;text-anchor:start;font-family:Sans;-inkscape-font-specification:Sans"
           y="1003.2068"
           x="161.06592"
           id="tspan7811"
           sodipodi:role="line">Δφ</tspan></text>
      <path
         id="path8065"
         style="fill:none;stroke:#be0000;stroke-width:0.82267356px;stroke-linecap:butt;stroke-linejoin:miter;stroke-opacity:1;marker-end:none"
         d="m 149.17132,922.60346 96.30092,-80.03181 M 149.17132,922.60346 94.497246,822.00793 M 149.17132,922.60346 47.900016,859.24495 M 149.17132,922.60346 41.065759,792.55177 M 149.17132,922.60346 93.875942,1026.5337 m 55.295378,-103.93024 119.28889,51.68722 m -119.11416,-51.63164 38.34564,-8.28105"
         inkscape:connector-curvature="0"
         sodipodi:nodetypes="cccccccccccccc" />
      <path
         id="path8067"
         style="fill:none;stroke:#00be10;stroke-width:0.82267356px;stroke-linecap:butt;stroke-linejoin:miter;stroke-opacity:1;marker-end:none"
         d="M 149.17132,922.60346 81.450026,933.719 m 67.721294,-11.11554 37.89907,-53.35453 m -37.89907,53.35453 30.44351,56.13344"
         inkscape:connector-curvature="0"
         sodipodi:nodetypes="cccccc" />
    </g>
  </g>
</svg>
